<?xml version="1.0" standalone="no"?>
<!DOCTYPE svg PUBLIC "-//W3C//DTD SVG 20010904//EN"
 "http://www.w3.org/TR/2001/REC-SVG-20010904/DTD/svg10.dtd">
<svg version="1.0" xmlns="http://www.w3.org/2000/svg"
 width="350.000000pt" height="342.000000pt" viewBox="0 0 350.000000 342.000000"
 preserveAspectRatio="xMidYMid meet">

<g transform="translate(0.000000,342.000000) scale(0.100000,-0.100000)"
fill="#000000" stroke="none">
<path d="M2035 3179 c-592 -36 -1364 -163 -1549 -255 -103 -52 -186 -144 -186
-206 0 -16 85 -370 190 -788 332 -1331 361 -1439 417 -1540 66 -118 155 -243
190 -263 7 -5 120 13 266 42 138 28 396 77 572 111 422 80 1016 196 1135 221
52 11 142 30 199 42 127 27 136 36 99 104 -54 99 -45 169 28 244 l47 48 -42
98 c-35 80 -218 519 -486 1163 -158 381 -379 898 -406 953 l-19 37 -163 -1
c-89 -1 -220 -5 -292 -10z m576 -429 c86 -201 253 -599 372 -885 118 -286 248
-598 288 -693 57 -136 70 -175 59 -182 -13 -8 -202 -45 -1045 -205 -275 -53
-625 -120 -779 -151 -153 -30 -284 -53 -290 -51 -7 3 -21 36 -31 74 -42 154
-73 238 -89 241 -23 5 -21 -7 28 -174 25 -82 42 -152 38 -155 -11 -10 -232
-52 -239 -46 -6 6 -23 66 -69 237 -14 52 -131 513 -259 1024 -212 845 -232
932 -220 955 30 58 157 153 177 133 11 -11 7 4 189 -702 77 -300 156 -606 176
-680 19 -74 39 -152 44 -173 22 -91 70 -252 78 -260 4 -4 12 -2 18 5 7 9 -9
84 -54 253 -35 132 -92 353 -127 490 -36 138 -74 284 -85 325 -22 83 -154 599
-179 697 -8 35 -13 65 -10 68 9 9 243 64 384 90 449 83 937 133 1274 131 l195
-1 156 -365z m690 -1864 c-18 -19 -46 -28 -134 -45 -1208 -224 -1837 -351
-2122 -426 -56 -15 -60 -15 -72 1 -7 10 -13 23 -13 29 0 12 664 147 1475 300
220 42 499 95 620 119 121 24 231 44 244 45 l24 1 -22 -24z m-31 -65 c0 -6 -4
-12 -9 -15 -5 -3 -226 -46 -492 -96 -630 -118 -1170 -226 -1494 -299 -151 -34
-264 -55 -269 -50 -5 5 -7 11 -4 14 14 14 860 196 1273 273 61 11 182 34 270
51 88 17 270 51 405 76 135 25 250 47 255 49 20 8 65 6 65 -3z m0 -61 c0 -17
-37 -27 -220 -60 -96 -17 -206 -38 -245 -45 -38 -8 -167 -32 -285 -55 -488
-93 -1110 -223 -1364 -286 -74 -18 -102 -21 -112 -13 -8 6 -14 15 -14 19 0 25
1223 275 2160 443 47 8 80 7 80 -3z m3 -81 c-7 -6 -135 -32 -583 -115 -522
-98 -1111 -219 -1430 -294 -144 -35 -167 -38 -179 -25 -8 8 -12 18 -8 22 9 8
392 95 747 169 274 57 435 89 1018 200 189 35 360 68 380 73 29 6 40 5 50 -7
6 -9 9 -19 5 -23z m22 -49 c0 -16 -394 -99 -1245 -261 -234 -44 -537 -103
-674 -129 -229 -45 -270 -51 -254 -34 10 10 324 82 703 163 308 65 1435 280
1455 278 8 -1 15 -9 15 -17z"/>
<path d="M2601 1305 c-233 -41 -426 -76 -428 -79 -6 -5 94 -255 106 -269 4 -4
115 11 247 33 131 23 318 54 414 70 245 42 232 38 224 62 -3 11 -29 74 -56
139 -36 85 -55 119 -67 118 -9 0 -207 -34 -440 -74z m463 -7 c51 -118 69 -168
63 -174 -6 -6 -794 -144 -823 -144 -9 0 -106 221 -99 228 2 2 160 30 352 63
191 32 368 63 393 68 86 17 89 16 114 -41z"/>
<path d="M291 2991 c-88 -92 -141 -215 -141 -329 0 -77 23 -63 32 19 14 125
61 221 152 309 49 47 56 60 30 60 -9 0 -42 -26 -73 -59z"/>
<path d="M160 2483 c0 -29 12 -63 21 -63 5 0 9 18 9 40 0 29 -4 40 -15 40 -8
0 -15 -8 -15 -17z"/>
<path d="M180 2375 c0 -8 5 -15 10 -15 6 0 10 7 10 15 0 8 -4 15 -10 15 -5 0
-10 -7 -10 -15z"/>
<path d="M3480 471 c0 -6 5 -13 10 -16 6 -3 10 1 10 9 0 9 -4 16 -10 16 -5 0
-10 -4 -10 -9z"/>
</g>
</svg>
